PathFileType	4	(X/Y/Z)	RBDS026\RBDS026runT25.trc
DataRate	CameraRate	NumFrames	NumMarkers	Units	OrigDataRate	OrigDataStartFrame	OrigNumFrames
150.000000	150.000000	6	33	mm	150.000000	1687	4500
Frame#	Time	L.ASIS			L.Heel.Bottom			L.Heel.Lateral			L.Heel.Top			L.Iliac.Crest			L.MT1			L.MT5			L.PSIS			L.Shank.Bottom.Lateral			L.Shank.Bottom.Medial			L.Shank.Top.Lateral			L.Shank.Top.Medial			L.Thigh.Bottom.Lateral			L.Thigh.Bottom.Medial			L.Thigh.Top.Lateral			L.Thigh.Top.Medial			R.ASIS			R.ASY			R.Heel.Bottom			R.Heel.Lateral			R.Heel.Top			R.Iliac.Crest			R.MT1			R.MT5			R.PSIS			R.Shank.Bottom.Lateral			R.Shank.Bottom.Medial			R.Shank.Top.Lateral			R.Shank.Top.Medial			R.Thigh.Bottom.Lateral			R.Thigh.Bottom.Medial			R.Thigh.Top.Lateral			R.Thigh.Top.Medial			
		X1	Y1	Z1	X2	Y2	Z2	X3	Y3	Z3	X4	Y4	Z4	X5	Y5	Z5	X6	Y6	Z6	X7	Y7	Z7	X8	Y8	Z8	X9	Y9	Z9	X10	Y10	Z10	X11	Y11	Z11	X12	Y12	Z12	X13	Y13	Z13	X14	Y14	Z14	X15	Y15	Z15	X16	Y16	Z16	X17	Y17	Z17	X18	Y18	Z18	X19	Y19	Z19	X20	Y20	Z20	X21	Y21	Z21	X22	Y22	Z22	X23	Y23	Z23	X24	Y24	Z24	X25	Y25	Z25	X26	Y26	Z26	X27	Y27	Z27	X28	Y28	Z28	X29	Y29	Z29	X30	Y30	Z30	X31	Y31	Z31	X32	Y32	Z32	X33	Y33	Z33	

1688	11.24666666666667	2137.205941984646	1002.638570524317	881.5762483775303	1773.598434175064	45.66072762450303	982.5988891613617	1804.203687133439	63.0213502208699	931.8463503855588	1786.839532453933	92.15713974078072	980.9463970796434	2054.12995622326	1071.926406314913	839.4569929041385	2001.325635946894	47.42031554658671	993.5475919381529	1949.265063059998	40.5368218721616	890.9200091542492	1964.865799048609	1052.545770846266	961.7049371409901	1898.528677994972	165.870331447089	905.8487631576346	1859.821940434696	192.1930716894609	925.974603633284	1933.367275628356	232.7146262394891	876.3297841765581	1894.472776226167	263.280736788548	895.5079141431694	2056.614090457014	599.7766735692202	838.1549840514245	1996.279179991055	597.542348389449	878.6192540487397	2040.638957681909	707.3421875990736	821.2311726407988	1985.963038597643	705.4776065948571	864.3896591446834	2131.399377514904	1006.068579528342	1128.286303299703	1942.435881930097	162.7397805826869	1119.807818635094	1779.577694436891	249.9204803147213	1071.367463236122	1809.84923573537	250.36409968975	1121.236577853063	1818.077133895363	275.3579425506309	1070.400902417587	2060.099185964804	1069.178705131413	1165.547351101523	1944.180685716188	97.51760265940683	1082.135972824937	1906.037792206605	131.6388470650435	1182.241865090442	1964.208229949971	1048.791465699951	1058.436757941289	1930.816745317513	292.7327815864758	1146.436918538033	1903.506869951817	327.1035353020745	1112.591073083578	1982.457962521243	353.6528313326784	1163.519187715518	1955.586357223308	385.6075286547091	1129.728346173172	2193.598500415118	604.8974966595244	1186.072871967812	2131.418820421525	582.8474703051602	1157.684155934265	2152.676188603582	706.9335770690318	1197.187327135877	2091.934960085407	684.2255114782307	1174.815780443093	
1689	11.25333333333333	2136.772824538281	1004.981664734968	881.3952033777122	1757.684069704592	50.82052057585457	982.2206934422517	1788.688874631629	67.20971523586292	931.4457758698805	1771.720648249483	97.00425827107925	980.2658355850249	2056.432914212319	1075.310437479871	839.7488954449176	1984.554213157428	47.39161640409967	993.8405822908132	1932.516085653386	41.06506336216069	891.0518417068996	1965.313908219756	1056.961415729643	961.6501439178766	1883.425522263769	169.662865634394	905.4313647536237	1845.006165788372	196.1514499404638	925.9607162014515	1918.548681707284	236.3996094838407	876.0482515256155	1879.906040296478	267.1376476459139	895.501569469568	2046.313620828093	603.0433525748458	838.8537532032641	1986.489179398439	602.5821627896186	880.1066610714777	2033.319597269793	711.0057653134486	822.1209786893199	1979.091740630432	710.7617518150623	865.9679110365075	2131.84535127669	1010.16099400512	1127.885729687199	1962.445378826985	158.0351539376067	1118.353118843171	1795.152194597479	236.8049337299441	1070.602050502064	1825.503929843179	238.6974525661327	1120.404484451147	1832.309022033563	264.2132691951506	1069.674256986963	2060.51031219543	1073.820701891521	1165.5815995825	1967.56735809179	93.27069720204685	1080.274830785393	1927.901874409497	124.8670040631204	1180.656134797583	1964.619408758584	1053.658775292257	1058.52862735683	1944.64997376719	286.774771530632	1145.532073963065	1915.693718470527	320.058881468432	1111.975480843098	1993.575474578146	349.812380898135	1162.909050450636	1965.111023695282	380.7462299855376	1129.462997377137	2197.664814962172	611.5253813149772	1186.145129262394	2135.511218051663	588.6603577357027	1158.490583446747	2155.716279480343	713.0622607340621	1197.522077769465	2095.013361390445	689.651859622712	1175.739466736115	
1690	11.26	2136.44336157824	1007.502948856737	881.3300555579938	1742.174642609798	56.86857994557749	981.8908780188299	1773.593218096977	72.12309487623278	931.0776518632325	1757.167744322071	102.6577476885582	979.6032184938092	2058.934861868535	1078.949567093637	840.1099877767427	1967.906756718765	47.30201079054888	994.0933565722246	1915.871938046427	41.70558045606479	891.1580581079938	1965.898621923961	1061.610320133479	961.6400396717554	1868.713781118988	173.9994518983181	904.9664474754326	1830.619977520587	200.6252597766919	925.9721946159484	1904.091218317575	240.6505438419595	875.7230198684884	1865.710608687682	271.519603948308	895.5145033700149	2036.341482618624	606.8164746918878	839.4428098953055	1977.067609262549	608.0510804523323	881.4558692188165	2026.283347908852	715.1136338560908	822.9544329875748	1972.535687758346	716.4072779390532	867.4668305099837	2132.44634337653	1014.580065568216	1127.498748651124	1982.812103611993	153.3569064586017	1116.852748933693	1811.561094893112	223.2955460866949	1069.534387132476	1841.860567388118	226.6807262397991	1119.318752134203	1847.223161263459	252.6525299532617	1068.708391170092	2061.269812201925	1079.079820655604	1165.724086358559	1991.422836488501	89.23473036435854	1078.375783878393	1950.213626178623	118.1597976380802	1178.965955010952	1965.193903918306	1058.838063485193	1058.696482779409	1958.719551980968	280.6014916317694	1144.506870303785	1928.156877370071	312.6362909247648	1111.157758655014	2004.680334647987	345.7326900171259	1162.201923183534	1974.66329776641	375.4966351868671	1129.020937058012	2201.195665734304	618.1862718525987	1186.2576851571	2139.043968945064	594.6159865475647	1159.335868237335	2158.415978981591	719.3004175164027	1197.872803146682	2097.728362704862	695.312323182408	1176.642348235597	
1691	11.26666666666667	2136.246789382143	1010.189566854107	881.4088876885035	1727.142619519865	63.7722894583558	981.6156225594582	1758.978030187489	77.73438069687329	930.7481765429195	1743.258053569249	109.0744233642384	978.9738126260424	2061.579093167379	1082.820023541002	840.5403871449383	1951.422937869523	47.13624641071265	994.2750405363169	1899.377537841079	42.46130622018919	891.2174385743816	1966.611890792095	1066.436288399579	961.6915290450982	1854.455849489675	178.8540618437983	904.449404984579	1816.740795939442	205.586512792948	926.0201975897141	1890.051883929867	245.4436671404405	875.344118715098	1851.962256778012	276.4014306053469	895.5643842634857	2026.803709272232	611.0573670493164	839.8588237116895	1968.096853463463	613.8802533787949	882.5768778528404	2019.600485565325	719.6306723257186	823.6810527885476	1966.34725261345	722.3499618661833	868.8152064010882	2133.172146857697	1019.314159425813	1127.154887764274	2003.522758929432	148.7711395057377	1115.340661859246	1828.827051056829	209.5038413215497	1068.207290673064	1858.930896477613	214.401476551621	1118.019960377993	1862.84388509559	240.7747230683891	1067.538414649677	2062.339559742412	1084.885977372023	1165.969337216104	2015.703454373088	85.48042953638999	1076.490922060784	1972.949807304029	111.5930663615545	1177.21952509525	1965.915808546326	1064.258197439981	1058.94933080156	1973.030873662414	274.257810162714	1143.390387034065	1940.927075999604	304.8913453281968	1110.160848442358	2015.782892371459	341.4263821140498	1161.416040263336	1984.280064320985	369.88113282205	1128.41104747803	2204.158426866302	624.7722760391206	1186.388695089662	2141.979212725964	600.6175184916173	1160.180103320522	2160.739181771808	725.5490703017267	1198.213229618253	2100.046662018618	701.1118566266338	1177.481886743833	
1692	11.27333333333333	2136.210258280435	1013.035110114747	881.6490118960079	1712.652522202136	71.46875590864057	981.3852914612177	1744.897139785926	83.99028028349319	930.4506857591271	1730.054374252651	116.1811967823133	978.3794141845156	2064.301631436881	1086.903338205062	841.0451870886549	1935.140223230956	46.89163617744163	994.3636274694728	1883.081592844788	43.33826769053061	891.2094543591181	1967.44434694009	1071.380286259448	961.823256743641	1840.705180476978	184.1835312816372	903.8740314384823	1803.432087529672	210.9879167914165	926.1079146755295	1876.476810980792	250.739501465826	874.903296145746	1838.72413865525	281.7417389185956	895.6661370967757	2017.778404514289	615.7173318964655	840.0614838817058	1959.637017947561	620.001577974267	883.4159043153951	2013.320143521149	724.5111754488853	824.2660018425369	1960.56305944515	728.525984326035	869.9672668830117	2133.993659829744	1024.330783781726	1126.880373390421	2024.559484093033	144.3460827129336	1113.8448638104	1846.954899016592	195.5495393607617	1066.670488016737	1876.714464215801	201.9567967899673	1116.553757959724	1879.183615452909	228.6834682870473	1066.203569358804	2063.660820194854	1091.130633022909	1166.301915651547	2040.357216678493	82.07829077476883	1074.664193277996	1996.083058491717	105.2482237977885	1175.461375263845	1966.770220001333	1069.841622508088	1059.297038624904	1987.58712071284	267.7905448348572	1142.214971981608	1954.028317525574	296.8863824060253	1109.017688475098	2026.896070662945	336.9086752808216	1160.575443985728	1993.996363976888	363.9283226626176	1127.655263422025	2206.521847078187	631.1742377654492	1186.517352194483	2144.281149672674	606.5660009311105	1160.986431642747	2162.652577974658	731.7062593826628	1198.517154554138	2101.936255675395	706.9507979387365	1178.221047530715	
1693	11.28	2136.356431262207	1016.037282452787	882.0550990134503	1698.757407165153	79.87270550926365	981.1740555893726	1731.393875541012	90.81783216192689	930.1653079309981	1717.601364267035	123.8834176476007	977.8069604256154	2067.034110676317	1091.184400723481	841.6332622322929	1919.090735504162	46.58024221078197	994.3485479900422	1867.032953258391	44.3459607195872	891.1166325103346	1968.385333647882	1076.381527967	962.0517068778945	1827.505331100471	189.9294500079903	903.2325418214342	1790.74098315658	216.7655037792088	926.2285767078934	1863.402824524757	256.4838596701062	874.3949806249515	1826.045948414894	287.4843821879135	895.8289615672636	2009.313439653231	620.7396770664388	840.0379993490225	1951.724742395286	626.3507874171717	883.9592172084649	2007.470327132243	729.7005559844794	824.6935003205759	1955.204977083332	734.8745515334809	870.9063462406914	2134.884425720973	1029.578513621397	1126.695692774484	2045.896113047586	140.151151015511	1112.385165464259	1865.929000629907	181.5606510630575	1064.980795380746	1895.198527384563	189.4545606980896	1114.970757589074	1896.239289580015	216.4880063218836	1064.748670037233	2065.157957474047	1097.680329137525	1166.699010110022	2065.320857867017	79.09863798237764	1072.926019100052	2019.581135741755	99.21121321853536	1173.728442586968	1967.743976673	1075.507179292529	1059.747402706437	2002.389503330177	261.2501772068045	1141.015754641385	1967.476225218217	288.6901147016433	1107.7712877708	2038.036452974823	332.1993886834758	1159.710221945099	2003.844403169085	357.6729538132676	1126.789501891145	2208.259253818378	637.2849881595741	1186.626990893063	2145.920015521272	612.3625166625445	1161.725139119347	2164.129227422323	737.6699410289937	1198.761977229055	2103.369852115368	712.727710088879	1178.83264633867	
